<?xml version="1.0" encoding="UTF-8"?>
<svg id="Layer_1" xmlns="http://www.w3.org/2000/svg" version="1.1" viewBox="0 0 141.73 141.73">
  <!-- Generator: Adobe Illustrator 29.1.0, SVG Export Plug-In . SVG Version: 2.1.0 Build 142)  -->
  <g id="TyY4wX.tif">
    <path d="M115.46,54.73c.77.7,1.3,1.54,2.04,2.22,1.4-.08,2.96-.03,4.36.16,1.01.14,2.35.36,1.34,1.62-1.05.34-2.17.44-3.23.78-.24.08-.98.27-1.05.46-.07.22.3,1.26.36,1.62,1.69,9.53-6.95,17.5-16.3,14.69-.82-.25-2.04-.48-1.81-1.56.12-.56,1.04-2.26,1.37-2.85,3.07-5.66,7.74-9.9,13.52-12.66.38-.18.89-.19,1.14-.61-6.97.31-13.8,3.88-18.41,9.03-.4.44-2.02,2.7-2.33,2.79-.75.23-1.12-.52-1.38-1.09-.54-1.19-.98-2.95-1.06-4.26-.74-11.72,12.81-18.26,21.43-10.35ZM97.78,66.37c3.85-4.18,9.12-7.45,14.69-8.74.49-.11,2.49-.38,2.68-.53.08-.06.16-.13.14-.24-.02-.09-1.08-1.12-1.25-1.26-6.19-5.27-15.85-2.43-18.06,5.41-.59,2.11-.58,4.93.4,6.92.16.01,1.18-1.33,1.39-1.56ZM117.16,60.54c-.17-.02-1.92.89-2.23,1.05-4.64,2.51-9.21,7.12-11.44,11.93-.51,1.11-.56,1.12.63,1.42,7.39,1.86,14.38-4.38,13.78-11.88-.03-.38-.38-2.49-.75-2.53ZM124.72,58.05l-1.18,3.03.14.23,6.87-3.26c0-.09-.99-.55-1.17-.64-1.46-.72-3.16-1.54-4.65-2.17-.39-.16-.77-.39-1.2-.35l1.19,3.16ZM38.24,54.17c0-1.86-.14-3.38-1.16-3.54v-.22c1.86.1,3.16.94,3.16,3.6v12.95c0,3.48-2.88,6.13-5.51,6.45h-5.75c-4.8,0-5.51-3.38-5.51-5.81,0-1.28.16-2.52.16-3.5,0-.88-.1-1.46-.6-1.76-.5-.3-.96-.38-1.38-.38-.66,0-1.22.34-1.66,1l-.08-.14c.46-1.04,1.48-1.98,2.9-1.98,2.24,0,2.6,1.8,2.6,3.62,0,.86-.08,1.78-.08,2.68,0,1.7.28,3.32,2.04,4.02.26.14.54.22.86.24h6.99c.12,0,1.34-.62,1.92-1.26.72-.8,1.08-1.86,1.08-3.2v-12.77ZM33.18,61.44c-1.36,0-2.38-.98-2.38-2.2v-.3h3.8v-1.26h-3.88c-.58,0-1.1.56-1.1,1.12v.44c0,.88.4,1.66,1.1,2.2-.22.06-.48.08-.74.08-.8,0-1.56-.24-1.58-.72h-.14c.14,1.12.7,1.88,2.14,1.88h4.46v-1.24h-1.68ZM48.73,72.23c0,3.82-1,6.79-3.16,9.29-2,2.34-4.36,3.44-7.33,3.44-1.2,0-2.34-.26-3.7-.76l.2-.34c.82.42,1.7.62,2.6.62,5.21,0,9.35-5.04,9.35-12.25v-11.81h2.04v11.81ZM55.1,67.09c0,2.5,1.82,4.32,4.1,4.32h.86v2h-.86c-3.36,0-6.13-3.2-6.13-6.33v-12.99c0-2.54,1.28-3.54,3.28-3.6v.32c-1.06.1-1.28,1.74-1.28,3.42,0,.34.02.72.02,1.18v11.67ZM82.93,67.81c0,2.02,1.56,3.6,3.7,3.6v2c-2,0-3.7-.9-4.74-2.5-.9,1.48-2.72,2.5-4.56,2.5-1.98,0-3.8-1.08-4.77-2.62-1.02,1.6-2.58,2.62-4.82,2.62-1.46,0-2.72-.46-3.78-1.36-.62,1.04-1.36,1.3-1.82,1.36h-2.12v-2h1.46c.3,0,.58-.26.66-.66v-10.61h2v7.33c0,2.18,1.72,3.94,3.7,3.94s3.52-1.44,3.58-3.58v-7.69h2v7.13c0,2.24,1.64,4.14,3.7,4.14s3.8-1.34,3.8-3.6v-4.52c0-2.98,1.58-3.52,3.12-3.62v.34c-1.08.16-1.12,2.22-1.12,4.3v3.5ZM94.94,73.41h-8.37v-2h8.37v2ZM103.25,73.41h-8.37v-2h8.37v2ZM17.48,65.08l-.25-3.24-.23-.15-4.77,5.92c.04.08,1.13.07,1.33.07,1.63.01,3.52.01,5.13-.07.42-.02.87.02,1.24-.2l-2.45-2.33Z"/>
  </g>
</svg>