<svg width="48" height="48" viewBox="0 0 48 48" fill="none" xmlns="http://www.w3.org/2000/svg">
<path d="M4 24C4 14.5719 4 9.85786 6.92893 6.92893C9.85786 4 14.5719 4 24 4C33.4281 4 38.1421 4 41.0711 6.92893C44 9.85786 44 14.5719 44 24C44 33.4281 44 38.1421 41.0711 41.0711C38.1421 44 33.4281 44 24 44C14.5719 44 9.85786 44 6.92893 41.0711C4 38.1421 4 33.4281 4 24Z" stroke="white" stroke-width="3"/>
<path d="M27.8333 36C27.8333 36.8284 28.5049 37.5 29.3333 37.5C30.1618 37.5 30.8333 36.8284 30.8333 36H29.3333H27.8333ZM29.3333 24.5217H27.8333H29.3333ZM17 16.8696L15.9781 15.7715C15.6732 16.0553 15.5 16.453 15.5 16.8696C15.5 17.2861 15.6732 17.6838 15.9781 17.9676L17 16.8696ZM21.1052 15.098C21.7117 14.5337 21.7458 13.5845 21.1814 12.9781C20.617 12.3717 19.6679 12.3376 19.0614 12.902L20.0833 14L21.1052 15.098ZM19.0614 20.8372C19.6679 21.4016 20.617 21.3675 21.1814 20.761C21.7458 20.1546 21.7117 19.2055 21.1052 18.6411L20.0833 19.7391L19.0614 20.8372ZM29.3333 36H30.8333V24.5217H29.3333H27.8333V36H29.3333ZM21.1111 16.8696V15.3696H17V16.8696V18.3696H21.1111V16.8696ZM17 16.8696L18.0219 17.9676L21.1052 15.098L20.0833 14L19.0614 12.902L15.9781 15.7715L17 16.8696ZM17 16.8696L15.9781 17.9676L19.0614 20.8372L20.0833 19.7391L21.1052 18.6411L18.0219 15.7715L17 16.8696ZM29.3333 24.5217L30.8333 24.5217C30.8333 21.3209 29.7841 18.9318 27.8664 17.3862C26.0076 15.8881 23.5607 15.3696 21.1111 15.3696V16.8696V18.3696C23.2025 18.3696 24.8667 18.8217 25.9838 19.722C27.042 20.5749 27.8333 22.0119 27.8333 24.5217H29.3333Z" fill="white"/>
</svg>
