<?xml version="1.0" encoding="UTF-8"?>
<svg id="Layer_1" xmlns="http://www.w3.org/2000/svg" version="1.1" viewBox="0 0 72.46 13.36">
  <!-- Generator: Adobe Illustrator 29.7.1, SVG Export Plug-In . SVG Version: 2.1.1 Build 8)  -->

  <g>
    <path fill="#175092"
      d="M37.91,8.95l-2.6-4.45c-.31-.54-.26-1.18.08-1.66-.45-.63-1.32-.83-2-.43-.19.11-.35.26-.47.43.03.04.05.07.07.11l1.13,1.87c.32.55.26,1.21-.1,1.69l2.27,3.89c.28.49.79.76,1.32.76.26,0,.52-.07.77-.21.47-.27.73-.76.75-1.26-.49-.03-.95-.3-1.21-.75Z" />
    <path fill="#40c1c5"
      d="M42.12,5.8l-1.68-2.85c-.43-.72-1.36-.97-2.09-.54-.2.12-.36.27-.48.45.02.03.04.06.06.09l2.6,4.45c.13.22.19.45.2.68.02,0,.05,0,.07,0,.26,0,.53-.07.77-.21.72-.43.97-1.36.54-2.09Z" />
    <path fill="#2b2868"
      d="M32.91,2.84c-.45-.64-1.33-.83-2.01-.43-.72.43-.97,1.36-.54,2.09l1.13,1.87c.28.48.79.75,1.31.75.26,0,.53-.07.77-.21.18-.1.32-.24.44-.39l-1.18-2.02c-.31-.53-.26-1.18.08-1.65Z" />
    <path fill="#202254"
      d="M34.11,4.82l-1.13-1.87s-.05-.08-.07-.11c-.34.47-.39,1.12-.08,1.65l1.18,2.02c.36-.48.42-1.14.1-1.69Z" />
    <path fill="#009294"
      d="M39.5,7.35l-1.68-2.85c-.31-.53-.27-1.16.06-1.63-.45-.65-1.33-.86-2.02-.45-.19.11-.35.26-.47.43.03.04.06.08.08.12l3.45,5.91c.15.26.22.54.21.82.03,0,.07,0,.1,0,.26,0,.52-.07.77-.21.51-.3.78-.85.75-1.4-.5-.02-.97-.29-1.25-.75Z" />
    <path fill="#2b2868"
      d="M38.92,8.87l-3.45-5.91s-.05-.08-.08-.12c-.34.47-.39,1.12-.08,1.66l2.6,4.45c.26.45.73.72,1.21.75.01-.28-.05-.56-.21-.82Z" />
    <path fill="#00aba8"
      d="M37.94,2.96s-.04-.06-.06-.09c-.32.47-.37,1.11-.06,1.63l1.68,2.85c.27.46.75.72,1.25.75-.01-.23-.08-.47-.2-.68l-2.6-4.45Z" />
  </g>
  <g>
    <path fill="#ffffff"
      d="M11.4,6.22c-.09-.09-.2-.16-.31-.21-.12-.05-.25-.08-.38-.08h-1.96v.57h1.93c.12,0,.22.04.3.12.05.05.09.12.11.19h-2.62v.53c0,.14.03.27.08.39.05.12.12.23.21.32.09.09.2.16.31.21.12.05.25.08.38.08h1.26c.14,0,.27-.03.38-.08.12-.05.22-.12.31-.21s.16-.2.21-.32c.05-.12.08-.25.08-.39v-.43c0-.14-.03-.27-.08-.38-.05-.12-.12-.22-.21-.31ZM11.09,7.4c0,.1-.05.18-.12.26h0c-.08.08-.17.12-.3.12h-1.19c-.12,0-.22-.04-.3-.12-.07-.07-.11-.16-.12-.26h2.03Z" />
    <path fill="#ffffff"
      d="M18.53,6.22c-.09-.09-.2-.16-.31-.21-.12-.05-.25-.08-.38-.08h-1.96v.57h1.93c.12,0,.22.04.3.12.05.05.09.12.11.19h-2.62v.53c0,.14.03.27.08.39.05.12.12.23.21.32.09.09.2.16.31.21.12.05.25.08.38.08h1.26c.14,0,.27-.03.38-.08.12-.05.22-.12.31-.21s.16-.2.21-.32c.05-.12.08-.25.08-.39v-.43c0-.14-.03-.27-.08-.38-.05-.12-.12-.22-.21-.31ZM18.22,7.4c0,.1-.05.18-.12.26h0c-.08.08-.17.12-.3.12h-1.19c-.12,0-.22-.04-.3-.12-.07-.07-.11-.16-.12-.26h2.03Z" />
    <path fill="#ffffff"
      d="M25.66,6.22c-.09-.09-.2-.16-.31-.21-.12-.05-.25-.08-.38-.08h-1.96v.57h1.93c.12,0,.22.04.3.12.05.05.09.12.11.19h-2.62v.53c0,.14.03.27.08.39.05.12.12.23.21.32.09.09.2.16.31.21.12.05.25.08.38.08h1.26c.14,0,.27-.03.38-.08.12-.05.22-.12.31-.21s.16-.2.21-.32c.05-.12.08-.25.08-.39v-.43c0-.14-.03-.27-.08-.38-.05-.12-.12-.22-.21-.31ZM25.35,7.4c0,.1-.05.18-.12.26h0c-.08.08-.17.12-.3.12h-1.19c-.12,0-.22-.04-.3-.12-.07-.07-.11-.16-.12-.26h2.03Z" />
    <path fill="#ffffff"
      d="M29.55,6.22v-.15h-.6v.15c0,.06-.01.11-.03.16-.02.05-.05.1-.09.14-.04.04-.08.07-.13.09-.05.02-.11.03-.17.03h-1.22c-.14,0-.27.03-.39.08v-1.75h-.6v3.37h.6v-.71c0-.06.01-.11.03-.16.02-.05.05-.1.09-.13.08-.08.18-.12.3-.12h1.19c.12,0,.22.04.3.12.04.04.07.08.09.13.02.05.03.11.03.17v.71h.6v-.71c0-.15-.03-.29-.09-.41-.05-.11-.12-.21-.21-.29.09-.08.15-.18.21-.29.06-.13.09-.26.09-.41Z" />
    <path fill="#ffffff"
      d="M7.78,6.22c-.09-.09-.2-.16-.32-.21-.12-.05-.25-.08-.39-.08h-.75c-.14,0-.27.03-.4.09-.11.05-.21.12-.29.2-.08-.08-.18-.15-.29-.2-.12-.06-.26-.09-.4-.09h-.75c-.14,0-.27.03-.38.08-.12.05-.22.12-.31.21s-.16.2-.21.31c-.05.12-.08.25-.08.38v1.42h.6v-1.42c0-.12.05-.22.13-.3.04-.04.08-.07.13-.09.05-.02.1-.03.16-.03h.69c.06,0,.11.01.16.03.05.02.1.05.14.09.04.04.07.08.09.14.02.05.03.11.03.16v1.42h.6v-1.42c0-.12.04-.22.12-.3.04-.04.08-.07.13-.09.05-.02.11-.03.17-.03h.69c.06,0,.12.01.17.03.05.02.1.05.13.09.08.08.12.18.12.3v1.42h.6v-1.42c0-.14-.03-.27-.08-.38-.05-.12-.12-.22-.21-.31Z" />
    <path fill="#ffffff"
      d="M22.1,6.22h0c-.09-.09-.2-.16-.32-.21-.12-.05-.25-.08-.39-.08h-1.25c-.14,0-.27.03-.39.08-.12.05-.22.12-.32.21s-.16.2-.21.32c-.05.12-.08.25-.08.39v1.42h.6v-1.41c0-.06.01-.12.03-.17.02-.05.05-.1.09-.13.08-.08.18-.12.3-.12h1.19c.06,0,.11.01.16.03.05.02.1.05.13.09s.07.08.09.13c.02.05.03.11.03.17v.04h.6v-.05c0-.14-.03-.27-.08-.39-.05-.12-.12-.22-.21-.32Z" />
    <path fill="#ffffff"
      d="M15.03,7.07c-.07-.07-.15-.12-.24-.16-.09-.04-.19-.06-.29-.06h-1.74s-.09-.02-.12-.05c-.03-.03-.05-.08-.05-.12s.02-.09.05-.12c.03-.03.07-.05.12-.05h2.22v-.57h-2.22c-.1,0-.2.02-.29.06-.09.04-.17.09-.24.16-.07.07-.12.15-.16.23-.04.09-.06.19-.06.29s.02.2.06.29c.04.09.09.17.16.24.07.07.15.12.24.16.09.04.19.06.29.06h1.74s.09.02.12.05c.03.04.05.08.05.13s-.02.09-.05.13c-.03.04-.07.05-.12.05h-2.31v.57h2.31c.1,0,.2-.02.29-.06.09-.04.17-.09.24-.16.07-.07.12-.15.16-.24.04-.09.06-.19.06-.29s-.02-.2-.06-.29c-.04-.09-.09-.17-.16-.24Z" />
    <path fill="#ffffff"
      d="M7.78,6.22c-.09-.09-.2-.16-.32-.21-.12-.05-.25-.08-.39-.08h-.75c-.14,0-.27.03-.4.09-.11.05-.21.12-.29.2-.08-.08-.18-.15-.29-.2-.12-.06-.26-.09-.4-.09h-.75c-.14,0-.27.03-.38.08-.12.05-.22.12-.31.21s-.16.2-.21.31c-.05.12-.08.25-.08.38v1.42h.6v-1.42c0-.12.05-.22.13-.3.04-.04.08-.07.13-.09.05-.02.1-.03.16-.03h.69c.06,0,.11.01.16.03.05.02.1.05.14.09.04.04.07.08.09.14.02.05.03.11.03.16v1.42h.6v-1.42c0-.12.04-.22.12-.3.04-.04.08-.07.13-.09.05-.02.11-.03.17-.03h.69c.06,0,.12.01.17.03.05.02.1.05.13.09.08.08.12.18.12.3v1.42h.6v-1.42c0-.14-.03-.27-.08-.38-.05-.12-.12-.22-.21-.31Z" />
  </g>
  <g>
    <path fill="#ffffff"
      d="M69.18,6.54c-.05-.12-.12-.22-.21-.32-.09-.09-.2-.16-.31-.21-.12-.05-.25-.08-.38-.08h-1.26c-.14,0-.27.03-.38.08-.12.05-.22.12-.31.21-.09.09-.16.2-.21.32-.05.12-.08.25-.08.39v.53h2.62c-.02.08-.06.15-.12.2-.08.08-.17.12-.3.12h-1.54s-1.65,0-1.65,0c0-.01.01-.02.02-.03.05-.12.08-.25.08-.38v-1.42h-.6v1.42c0,.12-.05.22-.13.3-.04.04-.08.07-.13.09-.04.02-.09.03-.14.03h-.74s-.1-.01-.14-.03c-.05-.02-.1-.05-.14-.09-.02-.02-.03-.04-.05-.06-.05-.08-.07-.17-.07-.22,0,0,0-.02,0-.03,0,0,0,0,0,0v-1.42h-.6v1.42c0,.12-.04.22-.12.3-.04.04-.08.07-.13.09-.04.02-.09.03-.14.03h-.73c-.05,0-.1-.01-.14-.03-.05-.02-.1-.05-.13-.09-.08-.08-.12-.18-.12-.3v-1.42h-.6v1.42s0,0,0,0c0,.06-.05.39-.39.41h-7.06c-.12,0-.22-.04-.3-.12-.04-.04-.07-.08-.09-.13-.02-.05-.03-.11-.03-.17v-2.37h-.6v2.37c0,.14.03.27.08.39.05.12.12.23.21.32.09.09.2.16.32.21.12.05.25.08.39.08h8.43s.03,0,.05,0h.75s.03,0,.04,0h1.29s.03,0,.04,0h.75s.03,0,.05,0h2.11s1.96,0,1.96,0c.14,0,.27-.03.38-.08.12-.05.22-.12.31-.21.09-.09.16-.2.21-.31.05-.12.08-.25.08-.38v-.43c0-.14-.03-.27-.08-.39ZM66.62,6.89c0-.1.05-.19.12-.26.08-.08.18-.12.3-.12h1.19c.12,0,.22.04.3.12.07.07.11.16.12.26h-2.03Z" />
    <path fill="#ffffff"
      d="M48.83,7.36c0,.06-.01.12-.03.17-.02.05-.05.1-.09.13-.08.08-.18.12-.3.12h-4.48c-.06,0-.11-.01-.16-.03-.05-.02-.1-.05-.13-.09-.04-.04-.07-.08-.09-.13-.02-.05-.03-.11-.03-.17v-.14h-.6v.14c0,.14.03.27.08.39.05.12.12.22.21.32h0c.09.09.2.16.32.21.12.05.25.08.39.08h4.54c.14,0,.27-.03.39-.08.12-.05.23-.12.32-.21.09-.09.16-.2.21-.32.05-.12.08-.25.08-.39v-2.39h-.6v2.38Z" />
    <path fill="#ffffff"
      d="M47.05,6.16h-1.02v-.19s0-.03.01-.04c0,0,.02-.01.04-.01h.97v-.09c0-.11-.09-.2-.2-.2h-.77s-.09,0-.13.03c-.04.02-.08.04-.11.07-.03.03-.06.07-.07.11-.02.04-.03.09-.03.13v.19h-.44v.29h1.75v-.29Z" />
    <path fill="#ffffff"
      d="M50.33,7.89c0,.14-.05.26-.14.36-.09.1-.21.15-.35.16h-.11v.54h.12c.15,0,.28-.03.41-.08.13-.06.24-.13.33-.23.1-.09.17-.2.23-.33.05-.13.08-.27.08-.41v-1.96h-.57v1.96Z" />
  </g>
</svg>