<svg width="48" height="48" viewBox="0 0 48 48" fill="none" xmlns="http://www.w3.org/2000/svg">
<path d="M4 24C4 14.5719 4 9.85786 6.92893 6.92893C9.85786 4 14.5719 4 24 4C33.4281 4 38.1421 4 41.0711 6.92893C44 9.85786 44 14.5719 44 24C44 33.4281 44 38.1421 41.0711 41.0711C38.1421 44 33.4281 44 24 44C14.5719 44 9.85786 44 6.92893 41.0711C4 38.1421 4 33.4281 4 24Z" stroke="white" stroke-width="3"/>
<path d="M25.5 12.9727C25.5 12.1442 24.8284 11.4727 24 11.4727C23.1716 11.4727 22.5 12.1442 22.5 12.9727L24 12.9727L25.5 12.9727ZM24 27.1308L22.5 27.1308L24 27.1308ZM24 36.6123L22.6926 37.3477C22.9583 37.82 23.4581 38.1123 24 38.1123C24.5419 38.1123 25.0417 37.82 25.3074 37.3477L24 36.6123ZM21.3074 28.7658C20.9012 28.0438 19.9866 27.7877 19.2646 28.1938C18.5426 28.6 18.2865 29.5145 18.6926 30.2366L20 29.5012L21.3074 28.7658ZM29.3074 30.2366C29.7135 29.5145 29.4574 28.6 28.7354 28.1938C28.0134 27.7877 27.0988 28.0438 26.6926 28.7658L28 29.5012L29.3074 30.2366ZM24 27.1308L22.5 27.1308L22.5 36.6123L24 36.6123L25.5 36.6123L25.5 27.1308L24 27.1308ZM24 36.6123L25.3074 35.8769L21.3074 28.7658L20 29.5012L18.6926 30.2366L22.6926 37.3477L24 36.6123ZM24 36.6123L25.3074 37.3477L29.3074 30.2366L28 29.5012L26.6926 28.7658L22.6926 35.8769L24 36.6123ZM24 12.9727L22.5 12.9727C22.5 23.351 22.5 13.5492 22.5 27.1308L24 27.1308L25.5 27.1308C25.5 13.5492 25.5 23.351 25.5 12.9727L24 12.9727Z" fill="white"/>
</svg>
