<svg width="48" height="48" viewBox="0 0 48 48" fill="none" xmlns="http://www.w3.org/2000/svg">
<path d="M4 24C4 14.5719 4 9.85786 6.92893 6.92893C9.85786 4 14.5719 4 24 4C33.4281 4 38.1421 4 41.0711 6.92893C44 9.85786 44 14.5719 44 24C44 33.4281 44 38.1421 41.0711 41.0711C38.1421 44 33.4281 44 24 44C14.5719 44 9.85786 44 6.92893 41.0711C4 38.1421 4 33.4281 4 24Z" stroke="white" stroke-width="3"/>
<path d="M22.5 36.6123C22.5 37.4407 23.1716 38.1123 24 38.1123C24.8284 38.1123 25.5 37.4407 25.5 36.6123L24 36.6123L22.5 36.6123ZM24 22.4541L25.5 22.4541L24 22.4541ZM24 12.9727L25.3074 12.2373C25.0417 11.7649 24.5419 11.4727 24 11.4727C23.4581 11.4727 22.9583 11.7649 22.6926 12.2373L24 12.9727ZM26.6926 20.8192C27.0988 21.5412 28.0134 21.7973 28.7354 21.3911C29.4574 20.985 29.7135 20.0704 29.3074 19.3484L28 20.0838L26.6926 20.8192ZM18.6926 19.3484C18.2865 20.0704 18.5426 20.985 19.2646 21.3911C19.9866 21.7973 20.9012 21.5412 21.3074 20.8192L20 20.0838L18.6926 19.3484ZM24 22.4541L25.5 22.4541L25.5 12.9727L24 12.9727L22.5 12.9727L22.5 22.4541L24 22.4541ZM24 12.9727L22.6926 13.708L26.6926 20.8192L28 20.0838L29.3074 19.3484L25.3074 12.2373L24 12.9727ZM24 12.9727L22.6926 12.2373L18.6926 19.3484L20 20.0838L21.3074 20.8192L25.3074 13.708L24 12.9727ZM24 36.6123L25.5 36.6123C25.5 26.2339 25.5 36.0357 25.5 22.4541L24 22.4541L22.5 22.4541C22.5 36.0357 22.5 26.2339 22.5 36.6123L24 36.6123Z" fill="white"/>
</svg>
