<svg width="48" height="48" viewBox="0 0 48 48" fill="none" xmlns="http://www.w3.org/2000/svg">
<path d="M4 24C4 14.5719 4 9.85786 6.92893 6.92893C9.85786 4 14.5719 4 24 4C33.4281 4 38.1421 4 41.0711 6.92893C44 9.85786 44 14.5719 44 24C44 33.4281 44 38.1421 41.0711 41.0711C38.1421 44 33.4281 44 24 44C14.5719 44 9.85786 44 6.92893 41.0711C4 38.1421 4 33.4281 4 24Z" stroke="white" stroke-width="3"/>
<path d="M19.1667 36C19.1667 36.8284 18.4951 37.5 17.6667 37.5C16.8382 37.5 16.1667 36.8284 16.1667 36H17.6667H19.1667ZM17.6667 24.5217H19.1667H17.6667ZM30 16.8696L31.0219 15.7715C31.3268 16.0553 31.5 16.453 31.5 16.8696C31.5 17.2861 31.3268 17.6838 31.0219 17.9676L30 16.8696ZM25.8948 15.098C25.2883 14.5337 25.2542 13.5845 25.8186 12.9781C26.383 12.3717 27.3321 12.3376 27.9386 12.902L26.9167 14L25.8948 15.098ZM27.9386 20.8372C27.3321 21.4016 26.383 21.3675 25.8186 20.761C25.2542 20.1546 25.2883 19.2055 25.8948 18.6411L26.9167 19.7391L27.9386 20.8372ZM17.6667 36H16.1667V24.5217H17.6667H19.1667V36H17.6667ZM25.8889 16.8696V15.3696H30V16.8696V18.3696H25.8889V16.8696ZM30 16.8696L28.9781 17.9676L25.8948 15.098L26.9167 14L27.9386 12.902L31.0219 15.7715L30 16.8696ZM30 16.8696L31.0219 17.9676L27.9386 20.8372L26.9167 19.7391L25.8948 18.6411L28.9781 15.7715L30 16.8696ZM17.6667 24.5217L16.1667 24.5217C16.1667 21.3209 17.2159 18.9318 19.1336 17.3862C20.9924 15.8881 23.4393 15.3696 25.8889 15.3696V16.8696V18.3696C23.7975 18.3696 22.1333 18.8217 21.0162 19.722C19.958 20.5749 19.1667 22.0119 19.1667 24.5217H17.6667Z" fill="white"/>
</svg>
