<svg width="48" height="48" viewBox="0 0 48 48" fill="none" xmlns="http://www.w3.org/2000/svg">
<path d="M4 24C4 14.5719 4 9.85786 6.92893 6.92893C9.85786 4 14.5719 4 24 4C33.4281 4 38.1421 4 41.0711 6.92893C44 9.85786 44 14.5719 44 24C44 33.4281 44 38.1421 41.0711 41.0711C38.1421 44 33.4281 44 24 44C14.5719 44 9.85786 44 6.92893 41.0711C4 38.1421 4 33.4281 4 24Z" stroke="white" stroke-width="3"/>
<path d="M18.212 24.5048L16.712 24.5048L18.212 24.5048ZM18.212 29.8382L16.8993 30.564C17.1634 31.0417 17.6662 31.3382 18.212 31.3382C18.7578 31.3382 19.2605 31.0417 19.5246 30.564L18.212 29.8382ZM17.3127 25.1123C16.9118 24.3873 15.9991 24.1246 15.2741 24.5255C14.5491 24.9264 14.2864 25.8391 14.6873 26.564L16 25.8382L17.3127 25.1123ZM21.7366 26.564C22.1375 25.8391 21.8748 24.9264 21.1498 24.5255C20.4248 24.1246 19.5121 24.3873 19.1112 25.1123L20.4239 25.8382L21.7366 26.564ZM28.7129 35.0273C28.7129 35.8558 29.3845 36.5273 30.2129 36.5273C31.0413 36.5273 31.7129 35.8558 31.7129 35.0273L30.2129 35.0273L28.7129 35.0273ZM30.2129 24.649L28.7129 24.649L30.2129 24.649ZM18.212 24.5048L16.712 24.5048L16.712 29.8382L18.212 29.8382L19.712 29.8382L19.712 24.5048L18.212 24.5048ZM18.212 29.8382L19.5246 29.1123L17.3127 25.1123L16 25.8382L14.6873 26.564L16.8993 30.564L18.212 29.8382ZM18.212 29.8382L19.5246 30.564L21.7366 26.564L20.4239 25.8382L19.1112 25.1123L16.8993 29.1123L18.212 29.8382ZM24.2129 14.2706L24.2129 12.7706C22.8607 12.7706 21.6277 12.9447 20.5626 13.4307C19.4578 13.9347 18.6272 14.7316 18.0399 15.8006C17.4737 16.8313 17.1535 18.0772 16.966 19.4847C16.7775 20.8995 16.712 22.571 16.712 24.5048L18.212 24.5048L19.712 24.5048C19.712 22.6189 19.7772 21.1011 19.9398 19.8808C20.1033 18.6531 20.3545 17.8179 20.6692 17.2451C20.9629 16.7105 21.3228 16.3813 21.8078 16.16C22.3323 15.9208 23.0879 15.7706 24.2129 15.7706L24.2129 14.2706ZM30.2129 24.649L28.7129 24.649L28.7129 35.0273L30.2129 35.0273L31.7129 35.0273L31.7129 24.649L30.2129 24.649ZM30.2129 24.649L31.7129 24.649C31.7129 22.6797 31.6474 20.9823 31.4594 19.5485C31.2723 18.1225 30.9533 16.8642 30.3889 15.825C29.8033 14.7468 28.9734 13.9427 27.8663 13.4344C26.7995 12.9446 25.5647 12.7706 24.2129 12.7706L24.2129 14.2706L24.2129 15.7706C25.3382 15.7706 26.092 15.9209 26.6146 16.1608C27.097 16.3823 27.4574 16.7133 27.7526 17.2567C28.0689 17.8392 28.3209 18.6889 28.4848 19.9386C28.6477 21.1805 28.7129 22.7264 28.7129 24.649L30.2129 24.649Z" fill="white"/>
</svg>
