<svg width="48" height="48" viewBox="0 0 48 48" fill="none" xmlns="http://www.w3.org/2000/svg">
<path d="M4 24C4 14.5719 4 9.85786 6.92893 6.92893C9.85786 4 14.5719 4 24 4C33.4281 4 38.1421 4 41.0711 6.92893C44 9.85786 44 14.5719 44 24C44 33.4281 44 38.1421 41.0711 41.0711C38.1421 44 33.4281 44 24 44C14.5719 44 9.85786 44 6.92893 41.0711C4 38.1421 4 33.4281 4 24Z" stroke="white" stroke-width="3"/>
<path d="M29.0009 24.5043L30.5009 24.5043L29.0009 24.5043ZM29.0009 29.8377L30.3136 30.5636C30.0495 31.0412 29.5467 31.3377 29.0009 31.3377C28.4551 31.3377 27.9524 31.0412 27.6883 30.5636L29.0009 29.8377ZM29.9002 25.1118C30.3011 24.3868 31.2138 24.1241 31.9388 24.525C32.6637 24.9259 32.9265 25.8386 32.5256 26.5636L31.2129 25.8377L29.9002 25.1118ZM25.4763 26.5636C25.0754 25.8386 25.3381 24.9259 26.0631 24.525C26.7881 24.1241 27.7007 24.3868 28.1016 25.1118L26.789 25.8377L25.4763 26.5636ZM18.5 35.0269C18.5 35.8553 17.8284 36.5269 17 36.5269C16.1716 36.5269 15.5 35.8553 15.5 35.0269L17 35.0269L18.5 35.0269ZM17 24.6485L18.5 24.6485L17 24.6485ZM29.0009 24.5043L30.5009 24.5043L30.5009 29.8377L29.0009 29.8377L27.5009 29.8377L27.5009 24.5043L29.0009 24.5043ZM29.0009 29.8377L27.6883 29.1118L29.9002 25.1118L31.2129 25.8377L32.5256 26.5636L30.3136 30.5636L29.0009 29.8377ZM29.0009 29.8377L27.6883 30.5636L25.4763 26.5636L26.789 25.8377L28.1016 25.1118L30.3136 29.1118L29.0009 29.8377ZM23 14.2701L23 12.7701C24.3522 12.7701 25.5852 12.9443 26.6503 13.4302C27.755 13.9342 28.5857 14.7311 29.173 15.8001C29.7392 16.8309 30.0593 18.0767 30.2468 19.4842C30.4353 20.8991 30.5009 22.5705 30.5009 24.5043L29.0009 24.5043L27.5009 24.5043C27.5009 22.6184 27.4357 21.1006 27.2731 19.8804C27.1096 18.6526 26.8584 17.8175 26.5436 17.2446C26.25 16.71 25.8901 16.3808 25.4051 16.1596C24.8806 15.9203 24.125 15.7701 23 15.7701L23 14.2701ZM17 24.6485L18.5 24.6485L18.5 35.0269L17 35.0269L15.5 35.0269L15.5 24.6485L17 24.6485ZM17 24.6485L15.5 24.6485C15.5 22.6792 15.5655 20.9818 15.7535 19.548C15.9405 18.1221 16.2596 16.8637 16.824 15.8245C17.4095 14.7463 18.2395 13.9422 19.3466 13.4339C20.4134 12.9441 21.6482 12.7701 23 12.7701L23 14.2701L23 15.7701C21.8747 15.7701 21.1209 15.9204 20.5983 16.1603C20.1159 16.3818 19.7555 16.7128 19.4603 17.2563C19.144 17.8387 18.892 18.6884 18.7281 19.9381C18.5652 21.18 18.5 22.7259 18.5 24.6485L17 24.6485Z" fill="white"/>
</svg>
