<svg width="202" height="34" viewBox="0 0 202 34" fill="none" xmlns="http://www.w3.org/2000/svg">
<path d="M105.843 6.20752L113.543 19.4075C113.843 19.9075 113.943 20.4075 114.043 20.9075C112.743 20.7075 111.643 20.0075 110.943 18.9075L105.943 10.3075C105.243 9.00752 105.243 7.50752 105.843 6.20752Z" fill="white"/>
<path d="M92.8432 17.4077C92.2432 17.8077 91.4432 18.0077 90.7432 18.0077C89.2432 18.0077 87.8432 17.2077 87.1432 15.9077L83.7432 10.3077C82.5432 8.30771 83.2432 5.70772 85.2432 4.50772C85.8432 4.10772 86.6432 3.90771 87.3432 3.90771C88.6432 3.90771 89.8432 4.50772 90.6432 5.50772C89.6432 7.10772 89.6432 9.00772 90.5432 10.6077L93.9432 16.5077C93.5432 16.9077 93.2432 17.2077 92.8432 17.4077Z" fill="white"/>
<path d="M91.0425 10.3074C90.3425 9.00742 90.2425 7.40742 90.9425 6.10742L94.2425 11.6074C95.0425 12.9074 95.0425 14.6074 94.2425 15.9074L91.0425 10.3074Z" fill="white"/>
<path d="M107.143 29.6077C106.543 30.0077 105.743 30.2077 105.043 30.2077C103.543 30.2077 102.143 29.4077 101.343 28.1077L94.7434 16.5077C95.8434 14.9077 95.9434 12.9077 94.9434 11.2077L91.5434 5.60772C91.4434 5.60772 91.4434 5.50772 91.4434 5.50772C91.7434 5.10772 92.1434 4.80772 92.6434 4.50772C93.2434 4.10772 94.0434 3.90771 94.7434 3.90771C96.0434 3.90771 97.2434 4.50772 98.0434 5.50772C97.0434 7.10772 97.0434 9.10772 97.9434 10.7077L105.743 24.1077C106.543 25.4077 107.843 26.3077 109.343 26.5077C109.043 27.8077 108.343 28.9077 107.143 29.6077Z" fill="white"/>
<path d="M106.243 23.7074L98.4432 10.3074C97.6432 9.00742 97.6432 7.40742 98.3432 6.10742L108.643 23.8074C108.943 24.4074 109.143 25.1074 109.243 25.7074C108.043 25.5074 106.843 24.8074 106.243 23.7074Z" fill="white"/>
<path d="M112.044 25.2076C111.444 25.6076 110.644 25.8076 109.944 25.8076C109.944 25.0076 109.744 24.2076 109.244 23.5076L98.9438 5.60762C98.9438 5.50762 98.8438 5.50762 98.8438 5.40762C99.1438 5.00762 99.5438 4.70762 100.044 4.40762C100.644 4.00762 101.444 3.80762 102.144 3.80762C103.444 3.80762 104.744 4.40762 105.544 5.50762C104.644 7.00762 104.544 9.00762 105.444 10.6076L110.444 19.2076C111.244 20.5076 112.644 21.4076 114.144 21.6076C114.144 23.1076 113.344 24.5076 112.044 25.2076Z" fill="white"/>
<path d="M118.744 17.8077C118.444 18.9077 117.744 19.8077 116.844 20.4077C116.244 20.8077 115.544 21.0077 114.844 21.0077C114.744 20.3077 114.544 19.7077 114.244 19.1077L106.444 5.70772C106.444 5.70772 106.444 5.60772 106.344 5.60772C106.644 5.20772 107.044 4.80772 107.544 4.50772C108.144 4.10772 108.944 3.90771 109.644 3.90771C111.144 3.90771 112.544 4.70772 113.244 6.00772L118.244 14.6077C118.844 15.5077 119.044 16.7077 118.744 17.8077Z" fill="white"/>
<path d="M27.7042 15.6128C27.4521 15.3607 27.0739 15.1086 26.8218 14.9826C26.4437 14.8565 26.0655 14.7305 25.6874 14.7305H19.8891V16.3691H25.5613C25.9395 16.3691 26.1916 16.4952 26.4437 16.7473C26.5697 16.8733 26.6958 17.1254 26.8218 17.3775H19.1328V18.8901C19.1328 19.2682 19.2589 19.6464 19.3849 20.0245C19.511 20.4027 19.7631 20.6548 20.0152 20.9069C20.2673 21.159 20.6454 21.4111 20.8975 21.5371C21.2757 21.6632 21.6538 21.7892 22.0319 21.7892H25.6874C26.0655 21.7892 26.4437 21.6632 26.8218 21.5371C27.2 21.4111 27.4521 21.159 27.7042 20.9069C27.9563 20.6548 28.2084 20.2766 28.3344 20.0245C28.4605 19.6464 28.5865 19.2682 28.5865 18.8901V17.6296C28.5865 17.2515 28.4605 16.8733 28.3344 16.4952C28.2084 16.2431 27.9563 15.8649 27.7042 15.6128ZM26.8218 19.1422C26.8218 19.3943 26.6958 19.6464 26.4437 19.8985C26.1916 20.1506 25.9395 20.2766 25.5613 20.2766H22.0319C21.6538 20.2766 21.4017 20.1506 21.1496 19.8985C20.8975 19.6464 20.7715 19.3943 20.7715 19.1422H26.8218Z" fill="white"/>
<path d="M48.754 15.6128C48.502 15.3607 48.1238 15.1086 47.8717 14.9826C47.4936 14.8565 47.1154 14.7305 46.7373 14.7305H40.939V16.3691H46.6112C46.9894 16.3691 47.2415 16.4952 47.4936 16.7473C47.6196 16.8733 47.7457 17.1254 47.8717 17.3775H40.0566V18.8901C40.0566 19.2682 40.1827 19.6464 40.3087 20.0245C40.4348 20.4027 40.6869 20.6548 40.939 20.9069C41.1911 21.159 41.5692 21.4111 41.8213 21.5371C42.1995 21.6632 42.5776 21.7892 42.9558 21.7892H46.6112C46.9894 21.7892 47.3675 21.6632 47.7456 21.5371C48.1238 21.4111 48.3759 21.159 48.628 20.9069C48.8801 20.6548 49.1322 20.2766 49.2582 20.0245C49.3843 19.6464 49.5103 19.2682 49.5103 18.8901V17.6296C49.5103 17.2515 49.3843 16.8733 49.2582 16.4952C49.2582 16.2431 49.0061 15.8649 48.754 15.6128ZM47.8717 19.1422C47.8717 19.3943 47.7457 19.6464 47.4936 19.8985C47.2415 20.1506 46.9894 20.2766 46.6112 20.2766H43.0818C42.7037 20.2766 42.4516 20.1506 42.1995 19.8985C41.9474 19.6464 41.8213 19.3943 41.8213 19.1422H47.8717Z" fill="white"/>
<path d="M69.8057 15.6128C69.5536 15.3607 69.1755 15.1086 68.9234 14.9826C68.5452 14.8565 68.1671 14.7305 67.7889 14.7305H61.9907V16.3691H67.6629C68.041 16.3691 68.2931 16.4952 68.5452 16.7473C68.6713 16.8733 68.7973 17.1254 68.9234 17.3775H61.2344V18.8901C61.2344 19.2682 61.3604 19.6464 61.4865 20.0245C61.6125 20.4027 61.8646 20.6548 62.1167 20.9069C62.3688 21.159 62.747 21.4111 62.9991 21.5371C63.3772 21.6632 63.7554 21.7892 64.1335 21.7892H67.7889C68.1671 21.7892 68.5452 21.6632 68.9234 21.5371C69.3015 21.4111 69.5536 21.159 69.8057 20.9069C70.0578 20.6548 70.3099 20.2766 70.436 20.0245C70.562 19.6464 70.6881 19.2682 70.6881 18.8901V17.6296C70.6881 17.2515 70.562 16.8733 70.436 16.4952C70.3099 16.2431 70.0578 15.8649 69.8057 15.6128ZM68.9234 19.1422C68.9234 19.3943 68.7973 19.6464 68.5452 19.8985C68.2931 20.1506 68.041 20.2766 67.6629 20.2766H64.1335C63.7554 20.2766 63.5033 20.1506 63.2512 19.8985C62.9991 19.6464 62.873 19.3943 62.873 19.1422H68.9234Z" fill="white"/>
<path d="M81.2751 15.6125V15.2343H79.5104V15.6125C79.5104 15.7385 79.5104 15.9906 79.3843 16.1167C79.2583 16.2427 79.2583 16.3688 79.1322 16.4948C79.0062 16.6209 78.8801 16.7469 78.7541 16.7469C78.628 16.873 78.502 16.873 78.2499 16.873H74.5945C74.2163 16.873 73.8382 16.999 73.46 17.1251V11.957H71.6953V21.9149H73.46V19.7721C73.46 19.646 73.46 19.3939 73.5861 19.2679C73.7121 19.1418 73.7121 19.0158 73.8382 18.8897C74.0903 18.6376 74.3424 18.5116 74.7205 18.5116H78.2499C78.628 18.5116 78.8801 18.6376 79.1322 18.8897C79.2583 19.0158 79.3843 19.1418 79.3843 19.2679C79.5104 19.3939 79.5104 19.52 79.5104 19.7721V21.9149H81.2751V19.7721C81.2751 19.3939 81.149 18.8897 81.023 18.5116C80.8969 18.1335 80.6448 17.8814 80.3927 17.6293C80.6448 17.3772 80.8969 17.1251 81.023 16.7469C81.149 16.4948 81.2751 16.1167 81.2751 15.6125Z" fill="white"/>
<path d="M16.9873 15.6128C16.7352 15.3607 16.4831 15.1086 16.1049 14.9826C15.7268 14.8565 15.3486 14.7305 14.9705 14.7305H12.7016C12.3235 14.7305 11.9453 14.8565 11.5672 14.9826C11.189 15.2347 10.9369 15.3607 10.6848 15.6128C10.4327 15.3607 10.1806 15.2347 9.80247 14.9826C9.42432 14.8565 9.04617 14.7305 8.66802 14.7305H6.39914C6.02099 14.7305 5.64284 14.8565 5.26469 14.9826C4.88654 15.1086 4.63444 15.3607 4.38235 15.6128C4.13025 15.8649 3.87815 16.2431 3.7521 16.4952C3.62605 16.8733 3.5 17.2515 3.5 17.7557V21.9153H5.26469V17.7557C5.26469 17.3775 5.39074 17.1254 5.64284 16.8733C5.76889 16.7473 5.89494 16.6212 6.02099 16.6212C6.14704 16.4952 6.27309 16.4952 6.52518 16.4952H8.54197C8.66802 16.4952 8.92012 16.4952 9.04617 16.6212C9.17222 16.7473 9.29827 16.7473 9.42432 16.8733C9.55037 16.9994 9.67642 17.1254 9.67642 17.2515C9.80247 17.3775 9.80247 17.5036 9.80247 17.7557V21.9153H11.5672V17.7557C11.5672 17.3775 11.6932 17.1254 11.9453 16.8733C12.0714 16.7473 12.1974 16.6212 12.3235 16.6212C12.4495 16.4952 12.5756 16.4952 12.8277 16.4952H14.8444C14.9705 16.4952 15.2226 16.4952 15.3486 16.6212C15.4747 16.7473 15.6007 16.7473 15.7268 16.8733C15.9789 17.1254 16.1049 17.3775 16.1049 17.7557V21.9153H17.8696V17.7557C17.8696 17.3775 17.7436 16.9994 17.6175 16.6212C17.4915 16.2431 17.2394 15.8649 16.9873 15.6128Z" fill="white"/>
<path d="M59.341 15.6128C58.9629 15.3607 58.7108 15.1086 58.3326 14.9826C57.9545 14.8565 57.5763 14.7305 57.1982 14.7305H53.5428C53.1646 14.7305 52.7865 14.8565 52.4083 14.9826C52.0302 15.1086 51.7781 15.3607 51.3999 15.6128C51.1478 15.8649 50.8957 16.2431 50.7697 16.4952C50.6436 16.8733 50.5176 17.2515 50.5176 17.6296V21.7892H52.2823V17.6296C52.2823 17.5036 52.2823 17.2515 52.4083 17.1254C52.5344 16.9994 52.5344 16.8733 52.6604 16.7473C52.9125 16.4952 53.1646 16.3691 53.5428 16.3691H57.0721C57.1982 16.3691 57.4503 16.3691 57.5763 16.4952C57.7024 16.6212 57.8284 16.6212 57.9545 16.7473C58.0805 16.8733 58.2066 16.9994 58.2066 17.1254C58.3326 17.2515 58.3326 17.3775 58.3326 17.6296V17.7557H60.0973V17.6296C60.0973 17.2515 59.9713 16.8733 59.8452 16.4952C59.7192 16.2431 59.5931 15.8649 59.341 15.6128Z" fill="white"/>
<path d="M38.4163 18.1338C38.1642 17.8817 38.0382 17.7557 37.66 17.6296C37.4079 17.5036 37.1558 17.5036 36.7777 17.5036H31.6096C31.4836 17.5036 31.3575 17.5036 31.2315 17.3775C31.2315 17.2515 31.2315 17.1254 31.2315 16.9994C31.2315 16.8733 31.2315 16.7473 31.3575 16.6212C31.4836 16.4952 31.6096 16.4952 31.7357 16.4952H38.2903V14.7305H31.7357C31.4836 14.7305 31.1054 14.7305 30.8533 14.8565C30.6012 14.9826 30.3491 15.1086 30.097 15.3607C29.8449 15.6128 29.7189 15.7389 29.5928 15.991C29.4668 16.2431 29.4668 16.4952 29.4668 16.8733C29.4668 17.1254 29.4668 17.5036 29.5928 17.7557C29.7189 18.0078 29.8449 18.2599 30.097 18.5119C30.3491 18.764 30.4752 18.8901 30.8533 19.0161C31.1054 19.1422 31.3575 19.1422 31.7357 19.1422H36.9037C37.0298 19.1422 37.1558 19.1422 37.2819 19.2682C37.4079 19.3943 37.4079 19.5203 37.4079 19.6464C37.4079 19.7724 37.4079 19.8985 37.2819 20.0245C37.1558 20.1506 37.0298 20.1506 36.9037 20.1506H30.097V21.7892H36.9037C37.1558 21.7892 37.534 21.7892 37.7861 21.6632C38.0382 21.5371 38.2903 21.4111 38.5423 21.159C38.7944 20.9069 38.9205 20.7808 39.0465 20.4027C39.1726 20.1506 39.1726 19.8985 39.1726 19.5203C39.1726 19.2682 39.1726 18.8901 39.0465 18.638C38.7944 18.5119 38.6684 18.3859 38.4163 18.1338Z" fill="white"/>
<path d="M16.9873 15.6128C16.7352 15.3607 16.4831 15.1086 16.1049 14.9826C15.7268 14.8565 15.3486 14.7305 14.9705 14.7305H12.7016C12.3235 14.7305 11.9453 14.8565 11.5672 14.9826C11.189 15.2347 10.9369 15.3607 10.6848 15.6128C10.4327 15.3607 10.1806 15.2347 9.80247 14.9826C9.42432 14.8565 9.04617 14.7305 8.66802 14.7305H6.39914C6.02099 14.7305 5.64284 14.8565 5.26469 14.9826C4.88654 15.1086 4.63444 15.3607 4.38235 15.6128C4.13025 15.8649 3.87815 16.2431 3.7521 16.4952C3.62605 16.8733 3.5 17.2515 3.5 17.7557V21.9153H5.26469V17.7557C5.26469 17.3775 5.39074 17.1254 5.64284 16.8733C5.76889 16.7473 5.89494 16.6212 6.02099 16.6212C6.14704 16.4952 6.27309 16.4952 6.52518 16.4952H8.54197C8.66802 16.4952 8.92012 16.4952 9.04617 16.6212C9.17222 16.7473 9.29827 16.7473 9.42432 16.8733C9.55037 16.9994 9.67642 17.1254 9.67642 17.2515C9.80247 17.3775 9.80247 17.5036 9.80247 17.7557V21.9153H11.5672V17.7557C11.5672 17.3775 11.6932 17.1254 11.9453 16.8733C12.0714 16.7473 12.1974 16.6212 12.3235 16.6212C12.4495 16.4952 12.5756 16.4952 12.8277 16.4952H14.8444C14.9705 16.4952 15.2226 16.4952 15.3486 16.6212C15.4747 16.7473 15.6007 16.7473 15.7268 16.8733C15.9789 17.1254 16.1049 17.3775 16.1049 17.7557V21.9153H17.8696V17.7557C17.8696 17.3775 17.7436 16.9994 17.6175 16.6212C17.4915 16.2431 17.2394 15.8649 16.9873 15.6128Z" fill="white"/>
<path d="M198.248 16.6209C198.122 16.2427 197.87 15.9906 197.618 15.7385C197.366 15.4864 196.988 15.2343 196.736 15.1083C196.358 14.9822 195.979 14.8562 195.601 14.8562H191.946C191.568 14.8562 191.19 14.9822 190.811 15.1083C190.433 15.2343 190.181 15.4864 189.929 15.7385C189.677 15.9906 189.425 16.3688 189.299 16.6209C189.173 16.999 189.047 17.3772 189.047 17.7553V19.2679H196.736C196.736 19.52 196.61 19.646 196.358 19.8981C196.105 20.1502 195.853 20.2763 195.475 20.2763H190.937H186.022V20.1502C186.148 19.7721 186.274 19.3939 186.274 19.0158V14.7301H184.509V18.8897C184.509 19.2679 184.383 19.52 184.131 19.7721C184.005 19.8981 183.879 20.0242 183.753 20.0242C183.627 20.0242 183.501 20.1502 183.374 20.1502H181.232C181.106 20.1502 180.98 20.1502 180.853 20.0242C180.727 19.8981 180.601 19.8981 180.475 19.7721L180.349 19.646C180.223 19.3939 180.097 19.1418 180.097 19.0158C180.097 19.0158 180.097 19.0158 180.097 18.8897V14.7301H178.333V18.8897C178.333 19.2679 178.206 19.52 177.954 19.7721C177.828 19.8981 177.702 20.0242 177.576 20.0242C177.45 20.0242 177.324 20.1502 177.198 20.1502H174.929C174.803 20.1502 174.677 20.1502 174.551 20.0242C174.425 19.8981 174.299 19.8981 174.173 19.7721C173.921 19.52 173.795 19.2679 173.795 18.8897V14.7301H172.03V18.8897C172.03 19.0158 171.904 20.0242 170.896 20.1502H150.097C149.719 20.1502 149.467 20.0242 149.215 19.7721C149.089 19.646 148.963 19.52 148.963 19.3939C148.837 19.2679 148.837 19.1418 148.837 18.8897V11.957H147.072V19.0158C147.072 19.3939 147.198 19.7721 147.324 20.1502C147.45 20.5284 147.703 20.7805 147.955 21.0326C148.207 21.2847 148.585 21.5368 148.837 21.6628C149.215 21.7889 149.593 21.9149 149.971 21.9149H174.803H174.929H177.198H177.324H181.106H181.232H183.501H183.627H189.803H195.601C195.979 21.9149 196.358 21.7889 196.736 21.6628C197.114 21.5368 197.366 21.2847 197.618 21.0326C197.87 20.7805 198.122 20.4023 198.248 20.1502C198.374 19.7721 198.5 19.3939 198.5 19.0158V17.7553C198.5 17.2511 198.374 16.873 198.248 16.6209ZM190.685 17.6293C190.685 17.3772 190.811 17.1251 191.063 16.873C191.316 16.6209 191.568 16.4948 191.946 16.4948H195.475C195.853 16.4948 196.105 16.6209 196.358 16.873C196.61 17.1251 196.736 17.3772 196.736 17.6293H190.685Z" fill="white"/>
<path d="M138.121 19.0158C138.121 19.1418 138.121 19.3939 137.995 19.52C137.869 19.646 137.869 19.7721 137.743 19.8981C137.491 20.1502 137.239 20.2763 136.861 20.2763H123.752C123.626 20.2763 123.374 20.2763 123.248 20.1502C123.122 20.0242 122.995 20.0242 122.869 19.8981C122.743 19.7721 122.617 19.646 122.617 19.52C122.491 19.3939 122.491 19.2679 122.491 19.0158V18.6376H120.727V19.0158C120.727 19.3939 120.853 19.7721 120.979 20.1502C121.105 20.5284 121.357 20.7805 121.609 21.0326C121.861 21.2847 122.239 21.5368 122.491 21.6628C122.869 21.7889 123.248 21.9149 123.626 21.9149H136.987C137.365 21.9149 137.743 21.7889 138.121 21.6628C138.5 21.5368 138.752 21.2847 139.004 21.0326C139.256 20.7805 139.508 20.4023 139.634 20.1502C139.76 19.7721 139.886 19.3939 139.886 19.0158V11.957H138.121V19.0158Z" fill="white"/>
<path d="M132.954 15.4863H129.929V14.8561V14.73C129.929 14.73 129.929 14.73 130.055 14.73H132.954V14.4779C132.954 14.0998 132.702 13.8477 132.324 13.8477H130.055C129.929 13.8477 129.803 13.8477 129.677 13.9737C129.551 13.9737 129.425 14.0998 129.299 14.2258C129.173 14.3519 129.173 14.4779 129.047 14.604C129.047 14.73 128.921 14.8561 128.921 14.9821V15.4863H127.66V16.3686H132.828V15.4863H132.954Z" fill="white"/>
<path d="M142.658 20.5287C142.658 20.9069 142.532 21.285 142.28 21.5371C142.028 21.7892 141.65 22.0413 141.272 22.0413H141.02V23.68H141.398C141.776 23.68 142.28 23.5539 142.658 23.4279C143.036 23.3018 143.414 23.0497 143.667 22.7976C143.919 22.5455 144.171 22.1674 144.297 21.7892C144.423 21.4111 144.549 21.0329 144.549 20.5287V14.7305H142.91V20.5287H142.658Z" fill="white"/>
</svg>
