<svg width="54" height="40" viewBox="0 0 54 40" fill="none" xmlns="http://www.w3.org/2000/svg">
<path d="M34.2952 3.62793L45.9335 23.5794C46.387 24.3352 46.5381 25.0909 46.6893 25.8466C44.7244 25.5444 43.0617 24.4863 42.0037 22.8237L34.4463 9.82498C33.3883 7.86006 33.3883 5.59285 34.2952 3.62793Z" fill="white"/>
<path d="M14.6445 20.5553C13.7376 21.1599 12.5285 21.4622 11.4704 21.4622C9.20322 21.4622 7.08715 20.253 6.02912 18.2881L0.890092 9.82384C-0.923681 6.80089 0.134354 2.87105 3.15731 1.05728C4.06419 0.452687 5.27338 0.150391 6.33141 0.150391C8.29633 0.150391 10.1101 1.05728 11.3193 2.56875C9.80781 4.98712 9.80781 7.85892 11.1681 10.2773L16.3072 19.195C15.7026 19.7996 15.2491 20.253 14.6445 20.5553Z" fill="white"/>
<path d="M11.9239 9.82477C10.8659 7.85984 10.7147 5.44148 11.7728 3.47656L16.7606 11.7897C17.9698 13.7546 17.9698 16.3241 16.7606 18.289L11.9239 9.82477Z" fill="white"/>
<path d="M36.2575 38.9953C35.3506 39.5999 34.1415 39.9022 33.0834 39.9022C30.8162 39.9022 28.7001 38.6931 27.491 36.7281L17.5152 19.195C19.1778 16.7766 19.329 13.7537 17.8175 11.1842L12.6785 2.7199C12.5273 2.7199 12.5273 2.56875 12.5273 2.56875C12.9808 1.96416 13.5854 1.51072 14.3411 1.05728C15.248 0.452687 16.4572 0.150391 17.5152 0.150391C19.4801 0.150391 21.2939 1.05728 22.5031 2.56875C20.9916 4.98712 20.9916 8.01007 22.3519 10.4284L34.1415 30.6822C35.3506 32.6471 37.3156 34.0075 39.5828 34.3098C39.1293 36.2747 38.0713 37.9373 36.2575 38.9953Z" fill="white"/>
<path d="M34.8998 30.0786L23.1103 9.82476C21.9011 7.85984 21.9011 5.44148 22.9592 3.47656L38.5274 30.2297C38.9808 31.1366 39.2831 32.1946 39.4343 33.1015C37.6205 32.7992 35.8067 31.7412 34.8998 30.0786Z" fill="white"/>
<path d="M43.6663 32.3456C42.7595 32.9502 41.5503 33.2525 40.4922 33.2525C40.4922 32.0433 40.1899 30.8341 39.4342 29.7761L23.866 2.72066C23.866 2.56951 23.7148 2.56951 23.7148 2.41836C24.1683 1.81377 24.7729 1.36033 25.5286 0.906887C26.4355 0.302296 27.6447 0 28.7027 0C30.6676 0 32.6326 0.906887 33.8417 2.56951C32.4814 4.83673 32.3303 7.85968 33.6906 10.278L41.248 23.2768C42.4572 25.2417 44.5732 26.602 46.8404 26.9043C46.8404 29.1715 45.6313 31.2876 43.6663 32.3456Z" fill="white"/>
<path d="M53.7931 21.1599C53.3397 22.8225 52.2816 24.1829 50.9213 25.0898C50.0144 25.6944 48.9564 25.9967 47.8983 25.9967C47.7472 24.9386 47.4449 24.0317 46.9914 23.1248L35.2019 2.87105C35.2019 2.87105 35.2019 2.7199 35.0508 2.7199C35.5042 2.11531 36.1088 1.51072 36.8645 1.05728C37.7714 0.452687 38.9806 0.150391 40.0387 0.150391C42.3059 0.150391 44.4219 1.35957 45.48 3.32449L53.0374 16.3232C53.9442 17.6835 54.2465 19.4973 53.7931 21.1599Z" fill="white"/>
</svg>
