<svg id="Layer_1" xmlns="http://www.w3.org/2000/svg" version="1.1" viewBox="0 0 314.94 94.25">
  <g>
    <path fill="#175092"
      d="M65.44,61.89l-19.95-34.18c-2.4-4.11-2-9.09.61-12.72-3.47-4.84-10.12-6.33-15.37-3.27-1.47.86-2.68,2-3.61,3.3.2.28.39.57.57.87l8.64,14.35c2.48,4.21,2.02,9.32-.76,12.99l17.42,29.87c2.17,3.73,6.09,5.8,10.11,5.8,2,0,4.03-.51,5.88-1.59,3.59-2.09,5.63-5.8,5.78-9.66-3.73-.25-7.28-2.27-9.31-5.75Z" />
    <path fill="#1ebcbd"
      d="M97.78,37.75l-12.87-21.86c-3.27-5.56-10.44-7.42-16-4.14-1.53.9-2.76,2.09-3.7,3.46.16.23.32.47.47.72l19.95,34.18c.96,1.65,1.47,3.44,1.57,5.23.17,0,.35.03.52.03,2.01,0,4.06-.52,5.92-1.62,5.56-3.27,7.42-10.44,4.14-16Z" />
    <path fill="#25245b"
      d="M27.11,15.02c-3.48-4.88-10.17-6.37-15.43-3.28-5.56,3.27-7.42,10.44-4.14,16l8.64,14.35c2.18,3.7,6.08,5.76,10.08,5.76,2.01,0,4.06-.52,5.92-1.62,1.36-.8,2.49-1.83,3.39-3.02l-9.05-15.52c-2.39-4.1-2-9.05.6-12.68Z" />
    <path fill="#27316d"
      d="M36.32,30.23l-8.64-14.35c-.18-.3-.37-.59-.57-.87-2.59,3.63-2.99,8.58-.6,12.68l9.05,15.52c2.77-3.66,3.23-8.78.76-12.99Z" />
    <path fill="#009294"
      d="M77.63,49.61l-12.87-21.86c-2.38-4.04-2.04-8.91.44-12.54-3.43-5.01-10.19-6.59-15.52-3.49-1.46.85-2.66,1.98-3.59,3.27.22.3.42.61.61.94l26.47,45.39c1.16,1.99,1.66,4.18,1.57,6.32.26.02.53.05.79.05,2,0,4.03-.51,5.88-1.6,3.92-2.29,6.01-6.51,5.77-10.76-3.82-.17-7.48-2.19-9.56-5.73Z" />
    <path fill="#005179"
      d="M73.18,61.31L46.71,15.93c-.19-.33-.4-.64-.61-.94-2.61,3.63-3.01,8.6-.61,12.72l19.95,34.18c2.03,3.48,5.58,5.49,9.31,5.75.08-2.14-.41-4.33-1.57-6.32Z" />
    <path fill="#008b80"
      d="M65.67,15.92c-.15-.25-.31-.48-.47-.72-2.48,3.63-2.82,8.5-.44,12.54l12.87,21.86c2.08,3.54,5.74,5.56,9.56,5.73-.1-1.79-.6-3.58-1.57-5.23l-19.95-34.18Z" />
  </g>
  <g>
    <path fill="#2f3183"
      d="M166.82,58.68c-.7-.7-1.51-1.24-2.41-1.63-.9-.39-1.9-.58-2.95-.58h-15.06v4.38h14.81c.93,0,1.67.31,2.28.96.42.38.71.88.87,1.5h-20.11v4.06c0,1.06.2,2.05.58,2.97.38.91.93,1.73,1.63,2.42.7.7,1.51,1.24,2.41,1.63.9.38,1.9.58,2.95.58h9.64c1.06,0,2.05-.2,2.95-.58.9-.38,1.71-.93,2.41-1.63.7-.7,1.25-1.51,1.64-2.42.4-.91.6-1.91.6-2.97v-3.33c0-1.06-.2-2.05-.6-2.95-.39-.9-.95-1.71-1.64-2.4ZM163.49,69.64h0c-.59.64-1.33.95-2.27.95h-9.12c-.92,0-1.67-.31-2.31-.95-.56-.56-.87-1.22-.94-1.99l15.57.03c-.07.75-.37,1.4-.93,1.96Z" />
    <path fill="#2f3183"
      d="M221.51,58.68c-.7-.7-1.51-1.24-2.41-1.63-.9-.39-1.9-.58-2.95-.58h-15.06v4.38h14.81c.93,0,1.67.31,2.28.96.42.38.71.88.87,1.5h-20.11v4.06c0,1.06.2,2.05.58,2.97.38.91.93,1.73,1.63,2.42.7.7,1.51,1.24,2.41,1.63.9.38,1.89.58,2.95.58h9.64c1.06,0,2.05-.2,2.95-.58.9-.38,1.71-.93,2.41-1.63s1.25-1.51,1.64-2.42c.4-.91.6-1.91.6-2.97v-3.33c0-1.06-.2-2.05-.6-2.95-.39-.9-.95-1.71-1.64-2.4ZM218.19,69.64h0c-.59.64-1.33.95-2.27.95h-9.12c-.92,0-1.67-.31-2.31-.95-.56-.56-.87-1.22-.94-1.99l15.57.03c-.07.75-.37,1.4-.93,1.96Z" />
    <path fill="#2f3183"
      d="M276.28,58.68c-.7-.7-1.51-1.24-2.41-1.63-.9-.39-1.9-.58-2.95-.58h-15.06v4.38h14.81c.93,0,1.67.31,2.28.96.42.38.71.88.87,1.5h-20.11v4.06c0,1.06.2,2.05.58,2.97.38.91.93,1.73,1.63,2.42.7.7,1.51,1.24,2.41,1.63.9.38,1.89.58,2.95.58h9.64c1.06,0,2.05-.2,2.95-.58.9-.38,1.71-.93,2.41-1.63.7-.7,1.25-1.51,1.64-2.42.4-.91.6-1.91.6-2.97v-3.33c0-1.06-.2-2.05-.6-2.95-.39-.9-.95-1.71-1.64-2.4ZM272.95,69.64h0c-.59.64-1.33.95-2.27.95h-9.12c-.92,0-1.67-.31-2.31-.95-.56-.56-.87-1.22-.94-1.99l15.57.03c-.07.75-.37,1.4-.93,1.96Z" />
    <path fill="#2f3183"
      d="M306.08,58.67v-1.11h-4.59v1.11c0,.44-.09.87-.25,1.26-.17.4-.4.75-.7,1.04-.29.29-.64.53-1.03.7-.39.17-.82.25-1.28.25h-9.36c-1.07,0-2.08.21-3.01.61v-13.44h-4.59v25.88h4.59v-5.45c0-.44.08-.86.25-1.24.17-.39.4-.73.7-1.03.64-.64,1.39-.95,2.31-.95h9.12c.91,0,1.67.31,2.31.95.29.29.53.64.7,1.03.17.39.25.82.25,1.28v5.41h4.59v-5.45c0-1.13-.23-2.19-.67-3.15-.4-.85-.93-1.61-1.58-2.26.65-.65,1.18-1.41,1.58-2.26.45-.96.67-2.02.67-3.18Z" />
    <path fill="#2f3183"
      d="M248.96,58.69h0c-.7-.7-1.51-1.25-2.42-1.63-.91-.38-1.91-.58-2.97-.58h-9.61c-1.05,0-2.05.2-2.97.58-.91.38-1.73.93-2.42,1.63-.7.7-1.24,1.51-1.63,2.43-.38.91-.58,1.91-.58,2.97v10.89h4.59v-10.86c0-.46.08-.89.25-1.28.17-.39.4-.73.7-1.03.64-.64,1.39-.95,2.31-.95h9.16c.44,0,.86.08,1.24.25.39.17.73.4,1.03.7s.53.64.7,1.03c.17.39.25.82.25,1.28v.32l4.59-.04v-.31c0-1.06-.2-2.05-.6-2.97-.39-.91-.93-1.72-1.61-2.42Z" />
    <path fill="#2f3183"
      d="M194.69,65.17c-.51-.51-1.12-.92-1.81-1.23-.7-.31-1.44-.46-2.23-.46h-13.39c-.38,0-.68-.13-.93-.39-.26-.26-.38-.58-.38-.96s.12-.69.38-.94c.25-.25.56-.38.94-.38h17.03v-4.38h-17.03c-.78,0-1.53.15-2.23.46-.69.3-1.3.72-1.81,1.23-.51.51-.92,1.11-1.21,1.8-.29.68-.44,1.43-.44,2.21s.15,1.53.44,2.22c.29.69.7,1.31,1.21,1.82.51.51,1.12.92,1.82,1.21.7.29,1.44.44,2.22.44h13.39c.38,0,.69.13.95.41.27.28.4.6.4.98s-.13.7-.4.98c-.26.27-.58.41-.95.41h-17.69v4.38h17.69c.78,0,1.53-.15,2.23-.46.69-.3,1.31-.72,1.82-1.25.51-.52.92-1.14,1.23-1.83.3-.7.46-1.45.46-2.22s-.15-1.53-.46-2.23c-.3-.69-.72-1.3-1.23-1.81Z" />
    <path fill="#2f3183"
      d="M139.02,58.68c-.7-.7-1.51-1.25-2.42-1.64-.91-.4-1.91-.6-2.97-.6h-5.79c-1.08,0-2.11.22-3.05.65-.83.38-1.58.89-2.23,1.51-.65-.62-1.4-1.12-2.24-1.51-.95-.43-1.98-.65-3.06-.65h-5.79c-1.06,0-2.05.2-2.95.6-.9.4-1.71.95-2.4,1.64s-1.25,1.5-1.64,2.4c-.4.9-.6,1.9-.6,2.95v10.93h4.59v-10.88c.04-.94.36-1.7.98-2.32.29-.29.64-.53,1.03-.7.39-.17.8-.25,1.24-.25h5.31c.44,0,.87.09,1.26.25.4.17.75.4,1.04.69.29.29.53.64.7,1.04.17.4.25.82.25,1.26v10.89h4.59v-10.89c0-.92.31-1.67.95-2.31.29-.29.64-.53,1.03-.7.39-.17.82-.25,1.28-.25h5.27c.46,0,.89.08,1.28.25.39.17.73.4,1.03.7.64.64.95,1.39.95,2.31v10.89h4.59v-10.93c0-1.05-.2-2.05-.58-2.95-.38-.9-.93-1.71-1.63-2.41Z" />
  </g>
  <g>
    <path fill="#2f3183"
      d="M305.48,25.73c-.4-.91-.95-1.72-1.64-2.42-.7-.7-1.51-1.24-2.41-1.63-.9-.38-1.9-.58-2.95-.58h-9.64c-1.06,0-2.05.2-2.95.58-.9.38-1.71.93-2.41,1.63-.7.7-1.24,1.51-1.63,2.42-.38.91-.58,1.91-.58,2.97v4.06h20.11c-.16.61-.45,1.12-.88,1.51-.59.63-1.33.94-2.27.94h-11.83s-12.68,0-12.68,0c.04-.08.09-.16.12-.25.4-.9.6-1.9.6-2.95v-10.93h-4.59v10.88c-.04.94-.36,1.7-.98,2.32-.29.29-.64.53-1.03.7-.33.14-.69.21-1.07.23h-5.66c-.38-.02-.74-.09-1.09-.24-.4-.17-.75-.4-1.04-.69-.13-.13-.25-.28-.35-.43-.4-.64-.53-1.32-.57-1.66,0-.07-.02-.13-.02-.19,0-.01,0-.03,0-.03v-10.88h-4.59v10.89c0,.91-.31,1.67-.95,2.31-.29.29-.64.53-1.03.7-.33.14-.7.21-1.1.23h-5.64c-.39-.02-.76-.09-1.1-.23-.39-.17-.73-.4-1.03-.7-.64-.64-.95-1.39-.95-2.31v-10.89h-4.59v10.93s0,.02,0,.02c-.04.46-.36,3.01-2.98,3.18h-54.21c-.91,0-1.67-.31-2.31-.95-.29-.29-.53-.64-.7-1.03-.17-.38-.25-.81-.25-1.28V13.78h-4.59v18.21c0,1.05.2,2.05.58,2.97.38.91.93,1.73,1.63,2.42s1.51,1.24,2.42,1.63c.91.38,1.91.58,2.97.58h64.68c.12,0,.24.02.36.02h5.79c.11,0,.22-.01.34-.02h9.9c.11,0,.22.02.34.02h5.79c.12,0,.24-.01.36-.02h16.22s15.06,0,15.06,0c1.05,0,2.05-.2,2.95-.58.9-.38,1.71-.93,2.41-1.63.7-.7,1.25-1.5,1.64-2.4.4-.9.6-1.9.6-2.95v-3.33c0-1.06-.2-2.06-.6-2.97ZM285.88,28.41c.06-.78.37-1.43.93-1.99.64-.64,1.39-.95,2.31-.95h9.12c.93,0,1.68.31,2.27.95.56.56.87,1.2.93,1.96l-15.57.03Z" />
    <path fill="#2f3183"
      d="M149.33,32.07c0,.46-.08.89-.25,1.28-.17.39-.4.74-.7,1.03-.64.64-1.39-.95-2.31-.95h-34.4c-.44,0-.86-.08-1.24-.25-.39-.17-.73-.4-1.03-.7s-.53-.64-.7-1.03c-.17-.39-.25-.82-.25-1.28v-1.05l-4.59.04v1.05c0,1.06.2,2.06.6,2.97.39.91.93,1.72,1.61,2.42h0c.7.7,1.52,1.25,2.42,1.63.91.38,1.91.58,2.97.58h34.85c1.06,0,2.05-.2,2.97-.58.91-.38,1.73-.93,2.42-1.63.7-.7,1.25-1.51,1.63-2.43.38-.91.58-1.91.58-2.97V13.78h-4.59v18.29Z" />
    <path fill="#2f3183"
      d="M127.88,21.1c.08-.08.16-.11.28-.11h7.46v-.69c0-.86-.7-1.56-1.56-1.56h-5.9c-.36,0-.71.07-1.03.21-.32.14-.6.33-.84.57-.24.24-.42.52-.56.83-.14.32-.2.66-.2,1.02v1.44h-3.35v2.25h13.45v-2.25h-7.85v-1.44c0-.11.04-.2.11-.28Z" />
    <path fill="#2f3183"
      d="M160.82,36.07c0,1.06-.36,1.97-1.08,2.74-.7.75-1.58,1.16-2.67,1.24l-.81.04v4.14h.89c1.13,0,2.18-.21,3.15-.64.97-.43,1.82-1.01,2.57-1.76.75-.72,1.33-1.57,1.74-2.55.41-.98.62-2.04.62-3.17v-15.04h-4.41v15.01Z" />
  </g>
</svg>