<svg id="Layer_1" xmlns="http://www.w3.org/2000/svg" version="1.1" viewBox="0 0 109.2 91.38">
  <path fill="#175092"
    d="M65.44,61.89l-19.95-34.18c-2.4-4.11-2-9.09.61-12.72-3.47-4.84-10.12-6.33-15.37-3.27-1.47.86-2.68,2-3.61,3.3.2.28.39.57.57.87l8.64,14.35c2.48,4.21,2.02,9.32-.76,12.99l17.42,29.87c2.17,3.73,6.09,5.8,10.11,5.8,2,0,4.03-.51,5.88-1.59,3.59-2.09,5.63-5.8,5.78-9.66-3.73-.25-7.28-2.27-9.31-5.75Z" />
  <path fill="#1ebcbd"
    d="M97.78,37.75l-12.87-21.86c-3.27-5.56-10.44-7.42-16-4.14-1.53.9-2.76,2.09-3.7,3.46.16.23.32.47.47.72l19.95,34.18c.96,1.65,1.47,3.44,1.57,5.23.17,0,.35.03.52.03,2.01,0,4.06-.52,5.92-1.62,5.56-3.27,7.42-10.44,4.14-16Z" />
  <path fill="#25245b"
    d="M27.11,15.02c-3.48-4.88-10.17-6.37-15.43-3.28-5.56,3.27-7.42,10.44-4.14,16l8.64,14.35c2.18,3.7,6.08,5.76,10.08,5.76,2.01,0,4.06-.52,5.92-1.62,1.36-.8,2.49-1.83,3.39-3.02l-9.05-15.52c-2.39-4.1-2-9.05.6-12.68Z" />
  <path fill="#27316d"
    d="M36.32,30.23l-8.64-14.35c-.18-.3-.37-.59-.57-.87-2.59,3.63-2.99,8.58-.6,12.68l9.05,15.52c2.77-3.66,3.23-8.78.76-12.99Z" />
  <path fill="#009294"
    d="M77.63,49.61l-12.87-21.86c-2.38-4.04-2.04-8.91.44-12.54-3.43-5.01-10.19-6.59-15.52-3.49-1.46.85-2.66,1.98-3.59,3.27.22.3.42.61.61.94l26.47,45.39c1.16,1.99,1.66,4.18,1.57,6.32.26.02.53.05.79.05,2,0,4.03-.51,5.88-1.6,3.92-2.29,6.01-6.51,5.77-10.76-3.82-.17-7.48-2.19-9.56-5.73Z" />
  <path fill="#005179"
    d="M73.18,61.31L46.71,15.93c-.19-.33-.4-.64-.61-.94-2.61,3.63-3.01,8.6-.61,12.72l19.95,34.18c2.03,3.48,5.58,5.49,9.31,5.75.08-2.14-.41-4.33-1.57-6.32Z" />
  <path fill="#008b80"
    d="M65.67,15.92c-.15-.25-.31-.48-.47-.72-2.48,3.63-2.82,8.5-.44,12.54l12.87,21.86c2.08,3.54,5.74,5.56,9.56,5.73-.1-1.79-.6-3.58-1.57-5.23l-19.95-34.18Z" />
</svg>