<svg width="198" height="198" viewBox="0 0 198 198" fill="none" xmlns="http://www.w3.org/2000/svg">
<g opacity="0.1" filter="url(#filter0_f_399_5240)">
<path fill-rule="evenodd" clip-rule="evenodd" d="M99 148C126.062 148 148 126.062 148 99C148 71.938 126.062 50 99 50C71.938 50 50 71.938 50 99C50 126.062 71.938 148 99 148Z" fill="black"/>
</g>
<mask id="mask0_399_5240" style="mask-type:alpha" maskUnits="userSpaceOnUse" x="24" y="24" width="150" height="150">
<path fill-rule="evenodd" clip-rule="evenodd" d="M99 174C140.421 174 174 140.421 174 99C174 57.5786 140.421 24 99 24C57.5786 24 24 57.5786 24 99C24 140.421 57.5786 174 99 174Z" fill="#E1E6EB"/>
</mask>
<g mask="url(#mask0_399_5240)">
<path opacity="0.2" fill-rule="evenodd" clip-rule="evenodd" d="M99 174C140.421 174 174 140.421 174 99C174 57.5786 140.421 24 99 24C57.5786 24 24 57.5786 24 99C24 140.421 57.5786 174 99 174Z" fill="#9897BF"/>
<path d="M140.713 60.9229H57.2869C52.9225 60.9229 49.3845 64.4642 49.3845 68.8326V98.0131C49.3845 102.382 52.9225 105.923 57.2869 105.923H140.713C145.077 105.923 148.615 102.382 148.615 98.0131V68.8326C148.615 64.4642 145.077 60.9229 140.713 60.9229Z" fill="white"/>
<path opacity="0.5" d="M123.606 69H59.3938C58.3264 69 57.4612 69.7749 57.4612 70.7308C57.4612 71.6866 58.3264 72.4615 59.3938 72.4615H123.606C124.673 72.4615 125.538 71.6866 125.538 70.7308C125.538 69.7749 124.673 69 123.606 69Z" fill="#2F2F7F"/>
<path opacity="0.5" d="M103.999 77.0771H59.3848C58.3224 77.0771 57.4612 77.852 57.4612 78.8079C57.4612 79.7638 58.3224 80.5387 59.3848 80.5387H103.999C105.061 80.5387 105.923 79.7638 105.923 78.8079C105.923 77.852 105.061 77.0771 103.999 77.0771Z" fill="#2F2F7F"/>
<path opacity="0.3" d="M71.6568 94.3848H59.4194C58.3379 94.3848 57.4612 95.1597 57.4612 96.1155C57.4612 97.0714 58.3379 97.8463 59.4194 97.8463H71.6568C72.7383 97.8463 73.615 97.0714 73.615 96.1155C73.615 95.1597 72.7383 94.3848 71.6568 94.3848Z" fill="#2F2F7F"/>
<path d="M140.713 117.461H57.2869C52.9225 117.461 49.3845 121.003 49.3845 125.371V154.552C49.3845 158.92 52.9225 162.461 57.2869 162.461H140.713C145.077 162.461 148.615 158.92 148.615 154.552V125.371C148.615 121.003 145.077 117.461 140.713 117.461Z" fill="#63639F"/>
<path opacity="0.3" d="M123.606 125.538H59.3938C58.3264 125.538 57.4612 126.313 57.4612 127.269C57.4612 128.225 58.3264 129 59.3938 129H123.606C124.673 129 125.538 128.225 125.538 127.269C125.538 126.313 124.673 125.538 123.606 125.538Z" fill="#2F2F7F"/>
<path opacity="0.3" d="M103.999 133.615H59.3848C58.3224 133.615 57.4612 134.39 57.4612 135.346C57.4612 136.301 58.3224 137.076 59.3848 137.076H103.999C105.061 137.076 105.923 136.301 105.923 135.346C105.923 134.39 105.061 133.615 103.999 133.615Z" fill="#2F2F7F"/>
<path opacity="0.15" d="M71.6568 150.922H59.4194C58.3379 150.922 57.4612 151.697 57.4612 152.653C57.4612 153.609 58.3379 154.384 59.4194 154.384H71.6568C72.7383 154.384 73.615 153.609 73.615 152.653C73.615 151.697 72.7383 150.922 71.6568 150.922Z" fill="#2F2F7F"/>
</g>
<defs>
<filter id="filter0_f_399_5240" x="0" y="0" width="198" height="198" filterUnits="userSpaceOnUse" color-interpolation-filters="sRGB">
<feFlood flood-opacity="0" result="BackgroundImageFix"/>
<feBlend mode="normal" in="SourceGraphic" in2="BackgroundImageFix" result="shape"/>
<feGaussianBlur stdDeviation="25" result="effect1_foregroundBlur_399_5240"/>
</filter>
</defs>
</svg>
